<svg width="204" height="204" viewBox="0 0 204 204" fill="none" xmlns="http://www.w3.org/2000/svg">
<rect width="204" height="204" rx="60" fill="#101605"/>
<path fill-rule="evenodd" clip-rule="evenodd" d="M93.7865 45.5971C71.8215 48.8227 54.4391 63.4191 47.6181 84.3655C47.1514 85.7989 46.616 87.4474 46.4287 88.0286C45.515 90.862 48.9607 90.5815 50.4078 87.7048C65.3495 58.0048 111.353 62.0794 119.42 93.8176C120.965 99.8959 127.364 99.1889 70.8086 99.1889C26.0467 99.1889 21.3717 99.2375 21.1922 99.7043C20.9359 100.371 20.9359 103.219 21.1922 103.886C21.3587 104.319 22.0725 104.402 25.6805 104.407C37.0244 104.42 44.4724 109.88 48.1179 120.854C57.0531 147.751 87.7278 164.005 115.768 156.7C135.631 151.526 153.283 133.545 156.637 115.071C157.086 112.597 153.84 113.316 152.592 115.967C143.03 136.274 114.234 142.665 96.2138 128.479C88.6855 122.553 82.6891 112.06 82.6881 104.81C82.6881 104.488 92.9251 104.387 132.223 104.321C178.566 104.244 200.466 99.2378 166.416 97.8858C154.884 97.428 159.48 94.4288 154.976 82.861C144.846 56.8433 120.046 41.7407 93.7865 45.5971Z" fill="#E9F893"/>
<path fill-rule="evenodd" clip-rule="evenodd" d="M93.7865 45.5971C71.8215 48.8227 54.4391 63.4191 47.6181 84.3655C47.1514 85.7989 46.616 87.4474 46.4287 88.0286C45.515 90.862 48.9607 90.5815 50.4078 87.7048C65.3495 58.0048 111.353 62.0794 119.42 93.8176C120.965 99.8959 127.364 99.1889 70.8086 99.1889C26.0467 99.1889 21.3717 99.2375 21.1922 99.7043C20.9359 100.371 20.9359 103.219 21.1922 103.886C21.3587 104.319 22.0725 104.402 25.6805 104.407C37.0244 104.42 44.4724 109.88 48.1179 120.854C57.0531 147.751 87.7278 164.005 115.768 156.7C135.631 151.526 153.283 133.545 156.637 115.071C157.086 112.597 153.84 113.316 152.592 115.967C143.03 136.274 114.234 142.665 96.2138 128.479C88.6855 122.553 82.6891 112.06 82.6881 104.81C82.6881 104.488 92.9251 104.387 132.223 104.321C178.566 104.244 200.466 99.2378 166.416 97.8858C154.884 97.428 159.48 94.4288 154.976 82.861C144.846 56.8433 120.046 41.7407 93.7865 45.5971Z" fill="#E9F893"/>
</svg>
