<svg width="497" height="349" viewBox="0 0 497 349" fill="none" xmlns="http://www.w3.org/2000/svg">
<path fill-rule="evenodd" clip-rule="evenodd" d="M223 2.50201C155.71 12.403 102.459 57.206 81.563 121.5C80.133 125.9 78.493 130.96 77.919 132.744C75.12 141.441 85.676 140.58 90.109 131.75C135.883 40.587 276.816 53.094 301.528 150.513C306.261 169.17 325.865 167 152.607 167C15.479 167 1.157 167.149 0.607 168.582C-0.178001 170.629 -0.178001 179.371 0.607 181.418C1.117 182.748 3.304 183.002 14.357 183.016C49.109 183.057 71.926 199.815 83.094 233.5C110.467 316.059 204.439 365.95 290.34 343.528C351.19 327.645 405.269 272.454 415.543 215.75C416.919 208.157 406.974 210.364 403.15 218.5C373.859 280.832 285.641 300.449 230.436 256.906C207.373 238.716 189.003 206.507 189 184.253C189 183.264 220.361 182.954 340.75 182.753C482.722 182.516 549.813 167.15 445.5 163C410.173 161.595 424.252 152.389 410.454 116.882C379.42 37.022 303.447 -9.33499 223 2.50201Z" fill="#E9F893"/>
</svg>
